# xmcd
#
# Track frame offsets: 
#        150
#        21866
#        43178
#        58918
#        76637
#        92126
#        106555
#        131546
#        142563
#        159263
#        177579
#
# Disc length: 2708 seconds
#
# Revision: 0
# Processed by: cddbd v1.5.1PL2 Copyright (c) Steve Scherf et al.
# Submitted via: ExactAudioCopy v0.95b1
#
DISCID=7f0a920b
DTITLE=Deana Carter - Father Christmas
DYEAR=2001
DGENRE=Country
TTITLE0=I'll Be Home For Christmas
TTITLE1=The Christmas Song (Chestnut Roasting On An Open Fire)
TTITLE2=Merry Christmas Darling
TTITLE3=Blue Christmas
TTITLE4=Johnny's Snowman
TTITLE5=Let It Snow
TTITLE6=Silent Night
TTITLE7=Winter Wonderland
TTITLE8=White Christmas
TTITLE9=Have Yourself A Merry Little Christmas
TTITLE10=Hidden Track
EXTD=
EXTT0=
EXTT1=
EXTT2=
EXTT3=
EXTT4=
EXTT5=
EXTT6=
EXTT7=
EXTT8=
EXTT9=
EXTT10=
PLAYORDER=
